<svg width="1280" height="1242" viewBox="0 0 1280 1242" fill="none" xmlns="http://www.w3.org/2000/svg">
<g clip-path="url(#clip0_14022_33)">
<path d="M805.052 371.892L640.001 207.628L474.949 371.892H144.695L432.538 85.5351C487.565 30.7672 562.19 0 640.001 0C717.811 0 792.436 30.7672 847.463 85.5351L1135.11 371.892H805.052Z" fill="white"/>
<path d="M1114.95 672.654L889.524 732.757L949.946 957.223L784.895 1241.79L679.617 850.628C659.501 775.814 670.056 696.11 708.961 629.044C747.867 561.977 811.936 513.039 887.079 492.992L1280 388.185L1114.95 672.654Z" fill="white"/>
<path d="M330.054 957.223L390.476 732.757L165.052 672.654L0 388.085L392.921 492.892C468.065 512.939 532.134 561.877 571.039 628.944C609.944 696.011 620.499 775.715 600.384 850.528L495.106 1241.79L330.054 957.223Z" fill="white"/>
</g>
<defs>
<clipPath id="clip0_14022_33">
<rect width="1280" height="1241.79" fill="white"/>
</clipPath>
</defs>
</svg>
